<?xml version="1.0" encoding="UTF-8" standalone="no"?>
<svg
  xmlns="http://www.w3.org/2000/svg"
  version="1.2"
  baseProfile="tiny-ps"
  width="1024"
  height="1024"
  viewBox="0 0 1024 1024">

  <!-- Transparent background -->
  <rect x="0" y="0" width="1024" height="1024" fill="none"/>

  <!-- Burgundy wine glass outline -->
  <g fill="none" stroke="#000000" stroke-width="26" stroke-linecap="round" stroke-linejoin="round">

    <!-- Rim -->
    <ellipse cx="512" cy="220" rx="190" ry="22"/>

    <!-- Bowl -->
    <path d="M322 220
             C280 390 360 580 512 620
             C664 580 744 390 702 220"/>

    <!-- Stem -->
    <path d="M512 620
             L512 760"/>

    <!-- Stem join -->
    <path d="M480 760
             H544"/>

    <!-- Base -->
    <ellipse cx="512" cy="820" rx="175" ry="24"/>
  </g>

  <!-- PS initials (now with clearly visible separation) -->
  <g fill="#1f5f3a">

    <!-- P (moved further left to create visible gap) -->
    <path d="M355 380
             H405
             C470 380 505 415 505 460
             C505 505 470 540 405 540
             H385
             V590
             H355
             Z
             M385 405
             V515
             H405
             C440 515 465 490 465 460
             C465 430 440 405 405 405
             Z"/>

    <!-- S (unchanged) -->
    <path d="M665 405
             C665 365 630 340 585 340
             C540 340 505 365 505 395
             C505 425 535 450 580 460
             C630 470 650 495 650 525
             C650 560 620 585 580 585
             C540 585 505 560 505 525
             H490
             C490 585 535 620 585 620
             C645 620 690 585 690 525
             C690 455 645 430 595 420
             C550 410 540 395 540 380
             C540 360 560 350 585 350
             C610 350 630 360 630 405
             Z"/>
  </g>

</svg>
