<?xml version="1.0" encoding="UTF-8" standalone="no"?>
<svg
  xmlns="http://www.w3.org/2000/svg"
  version="1.2"
  baseProfile="tiny-ps"
  width="1024"
  height="1024"
  viewBox="0 0 1024 1024">

  <!-- Transparent background -->
  <rect x="0" y="0" width="1024" height="1024" fill="none"/>

  <!-- Elegant wine glass outline -->
  <g fill="none" stroke="#000000" stroke-width="28" stroke-linecap="round" stroke-linejoin="round">

    <!-- Bowl -->
    <path d="M320 220
             C340 460 420 560 512 560
             C604 560 684 460 704 220
             Z"/>

    <!-- Stem -->
    <path d="M512 560
             L512 780"/>

    <!-- Base -->
    <path d="M380 820
             H644"/>
  </g>

  <!-- PS initials inside the bowl -->
  <g fill="#1f5f3a">

    <!-- P -->
    <path d="M440 310
             H490
             C545 310 575 345 575 390
             C575 435 545 470 490 470
             H470
             V520
             H440
             Z
             M470 340
             V440
             H490
             C520 440 540 420 540 390
             C540 360 520 340 490 340
             Z"/>

    <!-- S -->
    <path d="M610 340
             C610 305 580 285 540 285
             C500 285 470 305 470 335
             C470 365 495 385 535 395
             C580 405 595 420 595 445
             C595 470 570 490 535 490
             C500 490 470 470 470 445
             H460
             C460 495 500 525 540 525
             C590 525 630 495 630 445
             C630 395 590 370 545 360
             C505 350 495 340 495 325
             C495 310 515 300 540 300
             C565 300 585 310 585 340
             Z"/>
  </g>

</svg>
