<?xml version="1.0" encoding="UTF-8" standalone="no"?>
<svg
  xmlns="http://www.w3.org/2000/svg"
  version="1.2"
  baseProfile="tiny-ps"
  width="1024"
  height="1024"
  viewBox="0 0 1024 1024">

  <!-- Transparent background -->
  <rect x="0" y="0" width="1024" height="1024" fill="none"/>

  <!-- Wine glass -->
  <g fill="#000000">

    <!-- Bowl -->
    <path d="M312 220
             H712
             C700 420 640 540 512 560
             C384 540 324 420 312 220
             Z"/>

    <!-- Stem -->
    <rect x="482" y="560" width="60" height="220"/>

    <!-- Base -->
    <rect x="360" y="780" width="304" height="44"/>

    <!-- PS monogram inside bowl -->

    <!-- P -->
    <path d="M420 300
             H470
             C520 300 550 330 550 370
             C550 410 520 440 470 440
             H450
             V500
             H420
             Z
             M450 330
             V410
             H470
             C495 410 510 395 510 370
             C510 345 495 330 470 330
             Z"/>

    <!-- S -->
    <path d="M600 330
             C600 300 570 280 530 280
             C490 280 460 300 460 330
             C460 360 485 380 525 390
             C565 400 575 410 575 430
             C575 450 555 465 525 465
             C495 465 470 450 470 430
             H460
             C460 470 495 500 530 500
             C575 500 610 470 610 430
             C610 385 575 365 535 355
             C500 345 490 335 490 320
             C490 305 505 295 530 295
             C555 295 575 305 575 330
             Z"/>
  </g>
</svg>
