<?xml version="1.0" encoding="UTF-8" standalone="no"?>
<svg
  xmlns="http://www.w3.org/2000/svg"
  version="1.2"
  baseProfile="tiny-ps"
  width="1024"
  height="1024"
  viewBox="0 0 1024 1024">

  <!-- Transparent background -->
  <rect x="0" y="0" width="1024" height="1024" fill="none"/>

  <!-- Elegant wine glass outline -->
  <g fill="none" stroke="#000000" stroke-width="28" stroke-linecap="round" stroke-linejoin="round">

    <!-- Rim (top ellipse for 3D feel) -->
    <ellipse cx="512" cy="220" rx="192" ry="28"/>

    <!-- Bowl -->
    <path d="M320 220
             C340 460 420 560 512 560
             C604 560 684 460 704 220"/>

    <!-- Stem -->
    <path d="M512 560
             L512 760"/>

    <!-- Base stem join -->
    <path d="M470 760
             H554"/>

    <!-- Base (oval disc) -->
    <ellipse cx="512" cy="820" rx="170" ry="26"/>
  </g>

  <!-- PS initials inside the bowl -->
  <g fill="#1f5f3a">

    <!-- P -->
    <path d="M440 300
             H490
             C545 300 575 335 575 380
             C575 425 545 460 490 460
             H470
             V520
             H440
             Z
             M470 330
             V430
             H490
             C520 430 540 410 540 380
             C540 350 520 330 490 330
             Z"/>

    <!-- S -->
    <path d="M610 330
             C610 295 580 275 540 275
             C500 275 470 295 470 325
             C470 355 495 375 535 385
             C580 395 595 410 595 435
             C595 460 570 480 535 480
             C500 480 470 460 470 435
             H460
             C460 485 500 515 540 515
             C590 515 630 485 630 435
             C630 385 590 360 545 350
             C505 340 495 330 495 315
             C495 300 515 290 540 290
             C565 290 585 300 585 330
             Z"/>
  </g>

</svg>
